<?xml version="1.0" standalone="no"?>
<!DOCTYPE svg PUBLIC "-//W3C//DTD SVG 20010904//EN"
 "http://www.w3.org/TR/2001/REC-SVG-20010904/DTD/svg10.dtd">
<svg version="1.0" xmlns="http://www.w3.org/2000/svg"
 width="768.000000pt" height="509.000000pt" viewBox="0 0 768.000000 509.000000"
 preserveAspectRatio="xMidYMid meet">
<metadata>
Created by potrace 1.16, written by Peter Selinger 2001-2019
</metadata>
<g transform="translate(0.000000,509.000000) scale(0.100000,-0.100000)"
fill="#000000" stroke="none">
<path d="M2074 4699 c-198 -23 -395 -133 -454 -254 -30 -62 -42 -138 -29 -193
29 -134 148 -208 394 -247 128 -20 170 -33 200 -61 35 -33 35 -96 -1 -129 -69
-64 -345 -45 -492 35 l-55 30 6 -81 c5 -62 13 -92 32 -125 96 -164 464 -201
689 -69 58 34 123 105 149 163 29 66 35 179 12 237 -46 123 -156 188 -377 225
-68 12 -143 31 -168 43 -41 20 -45 25 -48 63 -3 36 1 45 27 67 39 32 108 47
222 47 115 0 212 -22 282 -64 63 -38 67 -36 67 42 0 129 -67 213 -200 252 -81
23 -164 29 -256 19z"/>
<path d="M2690 4224 c0 -495 -1 -487 67 -543 19 -15 53 -34 75 -41 37 -11 219
-32 225 -27 1 2 11 104 22 227 12 124 30 327 42 452 12 125 19 238 15 252 -10
42 -63 93 -113 110 -34 12 -85 16 -190 16 l-143 0 0 -446z"/>
<path d="M6305 4560 l-50 -7 50 -3 c42 -2 34 -4 -55 -16 -58 -8 -118 -11 -135
-8 -19 3 -25 2 -17 -4 15 -10 -210 -47 -233 -38 -9 3 -14 2 -11 -2 3 -5 -75
-21 -172 -36 -183 -30 -263 -50 -162 -41 53 4 53 4 15 -6 -22 -5 -49 -8 -60
-7 -25 4 -45 -15 -79 -73 -22 -38 -37 -51 -88 -74 -35 -16 -101 -51 -148 -80
-189 -114 -237 -133 -505 -196 -139 -33 -1005 -219 -1020 -219 -3 0 -5 18 -5
40 0 55 -34 139 -76 188 -28 33 -34 48 -30 70 6 28 10 138 6 182 -2 24 -3 23
-10 -5 -5 -19 -8 -23 -9 -11 -1 13 -18 -6 -50 -55 -80 -122 -301 -358 -301
-321 0 46 -10 -10 -24 -137 -9 -79 -19 -147 -21 -151 -8 -13 -252 18 -301 39
-29 12 -41 15 -30 6 12 -9 15 -15 7 -15 -8 0 -63 -18 -123 -40 -61 -23 -162
-53 -227 -68 -106 -25 -134 -27 -316 -27 -171 0 -217 3 -315 24 -109 22 -248
69 -279 94 -35 28 29 -61 92 -129 55 -59 64 -73 50 -78 -38 -11 -346 -67 -503
-91 -398 -61 -464 -77 -595 -142 -171 -86 -263 -170 -327 -298 -73 -143 -84
-234 -98 -810 -11 -420 -22 -576 -45 -629 -11 -28 -13 -29 -20 -11 -24 67 -28
76 -35 65 -6 -9 -9 -9 -13 1 -3 8 -3 -26 -1 -76 2 -49 9 -191 14 -315 6 -124
15 -259 21 -300 27 -182 94 -322 216 -451 l54 -57 3 -73 c2 -41 9 -95 16 -122
l12 -47 3591 0 3590 0 -7 98 c-11 175 -60 324 -150 466 -60 93 -189 214 -308
288 -41 25 -246 133 -255 133 -1 0 27 133 63 295 35 162 63 301 61 309 -1 8
-38 -151 -81 -352 -44 -202 -81 -365 -83 -363 -3 2 34 184 81 403 215 999 423
2026 466 2298 25 155 24 283 -4 390 -24 88 -87 210 -151 290 -35 43 -40 52
-15 25 83 -91 133 -177 171 -300 35 -111 33 -302 -4 -500 -61 -319 -173 -874
-243 -1210 -41 -195 -73 -358 -71 -364 5 -15 201 931 297 1441 60 311 71 454
47 570 -19 87 -54 175 -98 249 -37 61 -154 194 -171 194 -6 0 -5 -7 3 -17 7
-10 1 -7 -14 6 -30 27 -37 41 -9 20 14 -11 13 -10 -2 9 -20 23 -42 31 -30 10
4 -8 3 -10 -2 -5 -5 5 -9 13 -9 18 0 6 -24 24 -54 41 -30 18 -51 25 -46 17 4
-8 -2 -4 -14 9 -22 22 -48 31 -36 12 3 -6 -1 -7 -9 -4 -9 3 -14 9 -11 14 2 4
-7 12 -21 19 -37 16 -54 13 -19 -4 24 -12 25 -14 5 -8 -14 4 -56 14 -95 24
-38 10 -61 18 -50 19 l20 1 -20 8 c-29 12 -118 20 -108 11 4 -5 26 -10 48 -12
22 -2 -29 -3 -113 -3 -117 0 -151 3 -147 13 2 6 1 11 -3 10 -4 0 -29 -4 -57
-8z m-3321 -1104 c51 -15 126 -60 126 -75 0 -5 -27 0 -61 10 -89 28 -161 25
-234 -9 -107 -51 -167 -145 -169 -264 -1 -37 -2 -68 -4 -68 -2 0 -10 16 -18
35 -18 44 -18 141 1 194 50 142 211 221 359 177z m2847 -257 c111 -25 179 -46
187 -57 19 -25 14 -58 -12 -89 l-24 -28 -179 44 c-98 24 -184 48 -190 54 -20
15 -16 74 7 97 11 11 24 20 29 20 5 0 87 -18 182 -41z m214 -280 c77 -68 90
-136 69 -366 -23 -267 -59 -556 -72 -580 -36 -67 -152 -68 -174 -3 -3 9 -14 7
-43 -8 -66 -33 -145 -52 -217 -52 -201 0 -257 70 -245 304 11 215 44 287 160
345 63 32 74 35 160 34 65 0 111 -7 157 -22 36 -11 68 -21 73 -21 11 0 8 126
-4 154 -33 71 -214 75 -371 7 -41 -17 -48 -18 -67 -5 -48 34 -32 130 30 176
53 39 95 50 229 58 263 15 275 14 315 -21z m-1030 -74 c35 -34 35 -112 2 -151
-24 -27 -25 -27 -82 -16 -72 15 -217 15 -268 1 -55 -15 -71 -47 -72 -138 l0
-76 50 2 c28 1 93 3 145 5 118 4 152 -12 189 -86 24 -48 24 -51 13 -175 -6
-69 -18 -147 -27 -172 -21 -62 -66 -113 -122 -141 -43 -20 -65 -23 -211 -26
-183 -5 -201 1 -222 63 -13 40 -1 92 28 118 15 14 23 14 72 1 63 -16 216 -19
255 -4 15 6 32 24 40 44 21 50 29 136 16 170 l-12 29 -97 -9 c-173 -15 -206
-7 -254 57 -49 65 -45 276 6 377 29 58 86 108 136 122 60 16 170 27 283 29
102 1 109 0 132 -24z m-785 -61 c77 -31 109 -129 90 -279 -13 -104 -33 -168
-67 -214 -58 -76 -230 -113 -345 -74 l-56 19 -7 -52 c-7 -59 2 -142 17 -161
15 -19 102 -16 220 7 142 27 146 27 164 -16 27 -65 -12 -131 -91 -153 -22 -6
-105 -14 -185 -18 -127 -5 -151 -4 -183 12 -46 21 -84 83 -93 149 -8 58 13
501 28 576 25 130 91 192 222 209 110 15 242 12 286 -5z m-607 -65 c25 -31 23
-101 -5 -134 l-23 -26 -90 10 c-152 18 -190 15 -225 -16 -24 -22 -33 -41 -40
-86 -15 -97 -24 -428 -11 -459 10 -26 14 -28 68 -28 32 0 106 11 165 24 107
23 107 23 125 4 24 -27 23 -101 -3 -129 -42 -47 -89 -59 -245 -59 -135 0 -149
2 -180 23 -19 12 -44 42 -56 67 -20 39 -23 59 -23 170 1 215 17 461 35 510 21
60 78 116 134 134 55 18 284 35 326 24 17 -4 38 -17 48 -29z m-667 -44 c13
-20 15 -42 10 -122 -3 -54 -8 -161 -11 -238 -18 -509 -15 -495 -97 -495 -29 0
-41 6 -53 24 -15 22 -15 55 -6 313 17 455 20 489 43 518 27 35 91 36 114 0z
m-249 -32 c9 -13 16 -40 15 -61 0 -36 -243 -744 -264 -769 -15 -19 -46 -16
-58 6 -25 47 -230 692 -230 724 0 24 9 46 26 66 29 35 54 39 76 14 9 -10 49
-118 89 -240 41 -123 76 -223 79 -223 3 0 41 109 85 241 83 251 101 283 146
272 11 -3 27 -16 36 -30z m-692 -47 c67 -28 97 -142 76 -291 -15 -105 -43
-162 -90 -183 -20 -9 -38 -17 -40 -19 -2 -1 24 -46 56 -100 68 -112 75 -133
61 -174 -19 -55 -84 -67 -116 -21 -10 15 -51 84 -91 155 -40 70 -76 127 -81
127 -5 0 -10 -66 -12 -146 -3 -131 -5 -147 -22 -160 -26 -19 -71 -18 -90 2
-14 13 -16 62 -16 387 0 402 2 419 52 425 19 2 33 -6 55 -33 28 -33 31 -34 44
-19 21 25 109 64 147 64 18 0 48 -6 67 -14z m-518 -52 c16 -12 35 -41 45 -70
32 -91 17 -283 -26 -350 -29 -44 -97 -67 -180 -61 -39 3 -82 8 -94 12 -24 8
-24 8 -17 -61 12 -136 11 -135 167 -104 107 22 112 22 125 4 7 -10 13 -36 13
-58 -1 -80 -36 -98 -200 -104 -124 -4 -126 -4 -157 22 -58 49 -64 90 -61 392
3 297 8 321 70 365 59 43 264 51 315 13z m-503 -36 c23 -32 30 -82 15 -109
-17 -34 -29 -39 -58 -27 -14 6 -59 11 -100 11 -66 1 -75 -1 -92 -22 -16 -19
-19 -37 -17 -85 l3 -61 97 0 c96 0 98 -1 128 -31 26 -25 33 -44 42 -100 14
-91 3 -210 -25 -266 -31 -61 -65 -76 -183 -84 -96 -6 -101 -6 -129 18 -24 21
-28 32 -28 72 0 68 15 79 77 61 71 -22 132 -19 156 5 16 16 20 33 20 84 0 99
2 97 -99 89 -83 -5 -88 -5 -117 21 -40 33 -54 87 -54 208 1 187 53 234 267
237 74 1 83 -1 97 -21z m4966 -943 c75 -43 98 -149 64 -294 -21 -95 -62 -157
-121 -183 -83 -37 -231 -34 -324 6 -13 6 -17 -2 -22 -46 -4 -29 -4 -70 0 -91
9 -58 29 -62 207 -43 138 15 151 15 168 -1 25 -22 24 -83 -2 -116 -30 -38 -77
-47 -235 -47 -176 1 -211 8 -252 55 -53 61 -56 100 -29 373 26 259 37 302 94
355 52 49 91 57 262 55 135 -3 160 -6 190 -23z m-731 -13 c88 -46 93 -91 58
-470 -29 -302 -32 -312 -100 -312 -24 0 -52 6 -62 14 -23 17 -23 41 6 362 17
196 19 247 9 259 -9 11 -33 15 -85 15 -83 0 -135 -15 -135 -38 0 -59 -42 -524
-50 -554 -8 -29 -17 -39 -44 -48 -41 -13 -82 0 -96 32 -11 24 40 695 55 731
17 40 97 33 123 -12 l16 -28 33 20 c95 56 199 67 272 29z m-1270 -19 c14 -11
34 -35 44 -54 17 -31 18 -52 12 -229 -10 -310 -21 -367 -80 -419 -43 -37 -79
-44 -208 -39 -120 4 -158 21 -191 83 -19 36 -21 54 -18 175 4 237 18 366 44
412 45 80 100 99 267 93 82 -3 110 -8 130 -22z m303 -3 l30 -30 56 27 c74 36
171 43 222 15 59 -32 80 -74 80 -156 0 -106 -37 -537 -48 -567 -17 -44 -87
-54 -123 -18 -18 18 -20 29 -15 83 16 172 37 499 32 512 -7 19 -164 20 -190 1
-16 -11 -21 -48 -37 -271 -20 -293 -23 -312 -49 -326 -28 -15 -77 -12 -94 6
-21 20 -21 72 4 428 16 236 23 293 36 308 25 27 61 22 96 -12z m-841 6 c38
-16 51 -99 22 -135 -18 -21 -20 -21 -88 -6 -88 19 -156 19 -180 1 -16 -11 -20
-27 -20 -77 l0 -63 97 -1 c109 0 138 -13 171 -76 16 -29 18 -50 13 -135 -5
-111 -19 -155 -61 -196 -40 -40 -89 -50 -207 -42 -88 6 -105 10 -125 30 -28
28 -31 82 -5 114 17 22 19 22 72 6 72 -22 163 -21 181 1 9 10 14 41 14 82 l0
66 -100 5 c-55 3 -110 11 -122 18 -34 19 -54 66 -60 140 -13 156 41 256 147
272 59 9 225 6 251 -4z m-779 -27 l31 -31 38 21 c83 47 179 34 219 -31 16 -27
20 -50 20 -128 0 -52 -5 -113 -11 -135 -10 -36 -52 -87 -91 -110 -16 -9 -13
-18 29 -85 25 -41 50 -87 55 -101 19 -56 -35 -115 -84 -92 -14 6 -55 65 -103
149 l-80 139 -6 -120 c-3 -66 -9 -128 -13 -137 -18 -40 -91 -34 -107 9 -7 19
-7 126 1 338 10 295 12 311 31 328 29 23 36 22 71 -14z m-227 -8 c53 -29 67
-71 63 -191 -4 -120 -22 -171 -72 -201 -55 -34 -145 -35 -218 -4 -16 6 -18 1
-18 -46 0 -94 4 -99 69 -99 31 0 83 5 116 10 55 9 61 9 78 -11 41 -50 9 -115
-63 -130 -73 -14 -226 0 -257 24 -50 40 -56 73 -54 297 1 113 4 221 8 240 12
74 48 114 116 131 49 12 197 0 232 -20z m-726 -17 l20 -25 44 25 c77 46 173
29 212 -37 19 -30 20 -48 17 -262 -3 -255 -11 -293 -71 -328 -36 -21 -119 -22
-166 -3 l-35 15 0 -57 c0 -70 -19 -102 -59 -102 -56 0 -56 0 -52 399 1 203 7
374 12 383 14 26 54 22 78 -8z m-949 -1 c9 -8 18 -168 19 -330 l1 -163 82 0
c93 0 118 -13 118 -63 0 -58 -20 -67 -145 -67 -74 0 -117 4 -129 13 -29 21
-36 82 -36 344 0 249 0 252 22 267 20 14 52 13 68 -1z m555 -16 c47 -47 55
-101 55 -357 0 -207 -1 -221 -20 -240 -24 -24 -53 -26 -75 -4 -15 15 -19 15
-55 -1 -29 -13 -52 -16 -87 -11 -96 13 -124 55 -131 196 -7 153 23 221 104
236 34 6 86 -2 137 -21 13 -6 17 -2 17 18 0 76 -57 109 -145 84 -27 -8 -56
-16 -64 -18 -8 -2 -21 8 -29 24 -10 22 -11 35 -2 62 17 52 48 64 164 65 98 0
98 0 131 -33z"/>
<path d="M5651 2410 c-29 -5 -60 -14 -67 -22 -32 -32 -55 -218 -34 -274 l10
-26 118 4 c116 4 169 18 189 50 4 7 12 59 18 116 9 83 8 107 -2 122 -26 36
-111 47 -232 30z"/>
<path d="M3951 2617 c-65 -18 -84 -48 -89 -150 -3 -64 -1 -86 9 -93 20 -12
183 -6 227 9 45 15 61 51 61 145 1 85 -16 102 -101 101 -35 0 -83 -6 -107 -12z"/>
<path d="M1814 2430 c-19 -7 -22 -20 -28 -100 -4 -50 -5 -95 -1 -98 3 -4 33
-7 67 -7 53 0 63 3 84 28 20 24 24 39 24 96 0 39 -5 72 -12 79 -14 14 -102 15
-134 2z"/>
<path d="M1275 2410 c-34 -13 -42 -31 -49 -108 -9 -94 -3 -102 78 -101 92 2
109 9 124 54 15 47 7 128 -15 150 -16 16 -103 20 -138 5z"/>
<path d="M5672 1431 c-65 -11 -82 -34 -89 -120 -5 -57 -3 -75 8 -82 19 -12
216 -11 239 1 42 22 56 153 20 185 -23 21 -107 28 -178 16z"/>
<path d="M3687 1395 c-9 -8 -18 -32 -21 -52 -14 -86 -26 -301 -20 -346 8 -58
24 -67 118 -67 90 0 96 9 112 167 16 156 17 253 4 287 -9 25 -12 26 -94 26
-61 0 -89 -4 -99 -15z"/>
<path d="M2683 1373 c-9 -3 -13 -30 -13 -84 l0 -79 58 0 c71 0 92 18 99 83 8
70 -7 87 -75 86 -31 0 -63 -3 -69 -6z"/>
<path d="M2195 1376 c-21 -15 -35 -130 -17 -148 15 -15 147 -14 166 1 20 16
23 130 4 149 -17 17 -130 15 -153 -2z"/>
<path d="M1739 1374 c-21 -6 -29 -80 -29 -254 0 -146 2 -150 78 -158 75 -7 77
-2 77 222 l0 191 -55 2 c-30 0 -62 -1 -71 -3z"/>
<path d="M1093 1148 c-9 -15 -9 -155 0 -164 12 -13 115 -8 131 5 22 19 23 133
0 155 -19 20 -119 22 -131 4z"/>
</g>
</svg>
